<mxfile host="65bd71144e" modified="2021-01-26T11:08:24.757Z" agent="5.0 (Windows NT 10.0; Win64; x64) AppleWebKit/537.36 (KHTML, like Gecko) Code/1.52.1 Chrome/83.0.4103.122 Electron/9.3.5 Safari/537.36" etag="3BmZCuRUYBGOOQLQKQLy" version="13.10.0" type="embed">
    <diagram id="-YsqQlJrmPLWvMj-UFCK" name="Page-1">
        <mxGraphModel dx="1094" dy="564" grid="1" gridSize="10" guides="1" tooltips="1" connect="1" arrows="1" fold="1" page="1" pageScale="1" pageWidth="827" pageHeight="1169" math="0" shadow="0">
            <root>
                <mxCell id="0"/>
                <mxCell id="1" parent="0"/>
                <mxCell id="3" value="要件定義&lt;br&gt;●フォルダは最大10階層&lt;br&gt;&lt;br&gt;・画像、リンクが貼れる" style="rounded=0;whiteSpace=wrap;html=1;" parent="1" vertex="1">
                    <mxGeometry x="40" y="10" width="190" height="130" as="geometry"/>
                </mxCell>
                <mxCell id="2" value="必要なデータ&lt;br&gt;テーブル１&lt;br&gt;・id&lt;br&gt;・フォルダ名、ファイル内容(content)&lt;br&gt;・フォルダorファイル(d or f)&lt;br&gt;・所属フォルダ名&lt;br&gt;・表示順位" style="rounded=0;whiteSpace=wrap;html=1;align=left;verticalAlign=top;" parent="1" vertex="1">
                    <mxGeometry x="40" y="160" width="310" height="370" as="geometry"/>
                </mxCell>
                <mxCell id="4" value="" style="shape=image;verticalLabelPosition=bottom;labelBackgroundColor=#ffffff;verticalAlign=top;aspect=fixed;imageAspect=0;image=data:image/png,iVBORw0KGgoAAAANSUhEUgAAAkMAAAF1CAYAAADr8u62AAAgAElEQVR4Ae1di64kKbLr//+v/a65YvrGdJzoAIJ8GWe6pBQQT7CdVejsavrXP/rAEPjf//4H663GeyIgTWB5Ef5Y/L/cXdrDsv+rEaBHGEgD0oA0IA1IA9LAVzXwC3sX+3b3Jjp9hIBHQJrwaDw/F/7PY66OvxGQ9rBK0GUIiL/EDwR/09bSBJYY4Y/F/8vdpT0s+7oMAfGX+IHgb9pamsASI/yx+H+5u7SHZV+XISD+Ej8Q/E1bSxNYYoQ/Fv8vd5f2sOzrMgTEX+IHgr9pa2kCS4zwx+L/5e7SHpZ9XYaA+Ev814H/69c5KZ/Nv+ok0sR5JM9wKfzP468KxxCQ9o7hdlXWuV+Qq3bx0ToSf5343g+ct/t5vfI//xzNW+lRjZUm5kj1+PJ2P59X/BMh/P9godmzCEh7z+Idu+kyFBF5cP0F8R/9UYo0jOqMfLFOXLfc2RNz7ly/WRNnePKYj+qMfL5Gb/5m/Htnln0PBKQ9LA+6DAHxf5v4sx+izLYK+RU1sp6VupWYrPZR21s0keGW2VZxuqLGqOdb8B+dUb49EZD2sLzoMgTE/6j42w/Ckefuo2Y/VJltdR+Vsx6pOcu5Yu+zHtG/qokKNllM7Hv1OsMus632zc4Sbas1ffwq/j5XcyFwBgFp7wx653N1GTqP4eEKT4r/ih+i2UGzHpltVsf7K/mVmKxmy+vl9uy+zh3zJzTxxNmyHpltBcNKfiVm1PMJ/Ef95fsuAtIelntdhoD4Pyn+Iz8SqzlZfGarQl7NXYnLYqMtrqv7vSLuCU0cOd9qThaf2aqYVXOrcb2+T+Df6y37txGQ9rD86zIExP8p8R/9gVjNy+IzWwXylbyV2F5vq2FjLy6ztxx7Mv+K7W5NHDlf2/9qXhaf2SrYrOStxGa978Y/6ymbEGgISHtYHegyBMT/KfEf/YFYzcviM9sM8pWcldhR31bnaC3LPZrv93W3Jo7ucTUvi89s/uzZfCVnJTbr1Wx349/rK7sQkPawGtBlCIj/U+If/Ug0X/WZQZX1yWyzOtFv+4v2tr6qfla7arP9XbGXuzUx2qM/x2w+wybrk9lmdaLf9hXtbX1F/bvxz/YtmxBoCEh7WB3oMgTE/wnxH/2BGP3o9CDLemU2yx/5LMaPcU+r+b5Wm1u96hjz71jfqYmjeBk+K+fNemU2qznyWYwf455W830tP78Tf99HcyEQEZD2IiLPrnUZehbvH92eEP+RHwnLsfHHpgeLLD6zWYmRz2Ky0fJszGJGtpZnuTaO4puvGjerM/PfqYkjZ7AcG2f7N38Wn9lG8eYbjVbTxlFsxXcn/pX+ivkuAtIelntdhoD43y3+Iz8QPsfPKzBl8Zmt1erZK32O5reesW9c9/pX43r5Vftdmjiyf5/j55WzZPGZrdXq2St9rsj3fe7C3/fQXAhkCEh7GSrP2XQZeg7rvzrdKf4jPzAxJ67/OoAz9GIze2ZzpaZTy7dxmjAIqNaoxg1alVx3aOLI3mNOXI8O04vN7JltVDv6LN/G6F9d34H/6h4U/00EpD0s77oMAfG/S/xHfhiynMzWg6sXG+1x3avXs8f8uO7l9ezV/Gpcr0/VfrUmjuw7y8lsvTP1YqM9rnv1evaYH9e9vJH9avxHveQTAh4Bac+j8fxcl6HnMf+v49Xibz8Gqz8Io5xqrVGc+UZ9/gNkMrFak7Ald7VmNW6peRJ8lSaO4D3KqZ5/FGe+UZ8EktRktVLnCeNV+J/YglI/ioC0hyVelyEg/leI335Y7vhxqNScxdj+zsB8RY1e/9n+La8aZ/FHxzOaMJzu2Gul5izG9ncUm5Z3RY1R/zP4j+rKJwRmCEh7M4Tu9esydC++w+o7it9+bGY/bMODXeB8ah++z2x+wbGmJXbShMdjuvEbA57cx0743wipSm+IgLSHJUWXISD+Ej8Q/E1bSxNYYoQ/Fv8vd5f2sOzrMgTEX+IHgr9pa2kCS4zwx+L/5e7SHpZ9XYaA+Ev8QPA3bS1NYIkR/lj8v9xd2sOyr8sQEH+JHwj+pq2lCSwxwh+L/5e7S3tY9nUZAuIv8QPB37S1NIElRvhj8f9yd2kPy74uQ0D8JX4g+Ju2liawxAh/LP5f7i7tYdnXZQiIv8QPBH/T1tIElhjhj8X/y92lPSz7ugwB8Zf4geBv2lqawBIj/LH4f7m7tIdlX5chIP4S/7Pgt/943x2fK+tKE3cwVK8p/OtYvSHy7Lt7Nt9jeFZ7V+7F7+vMvLennv1Ir16tnr3X455fh1432X8gcFb8P4ppMUVg9eWYFvz/gCvrShNV1O+JO4J/43/29Hbr8yoxPr4y79X8ir1hlH283c+z2J7taF6v3hHt+Vpn99PyVx/fP5v39mT2Sr+srrdZLW9r8549xtk6V4p5Nd6KwFnx37q5i4ovC7Lz5XXFdlb3Yj1b3tnHas3GL2hihgHSfyf+mYYqZz2j20r9HWOOnjmeZVRn5It14rrlzp6YM1tXtDfrOfLP+t/hb/uxT29u/jb6GG/vzUfxI19W789OM+8mtpVDrcSij1cRP3qPZ/rPuMj8mW1lDy3/6NPrc8WeerWj/e2aiOfdbX0n/kd1dFTPR/s9zUm2z8y2uq8ramQ9K3UrMbH2We0d6Rn3cPXa76k3t57eb7bZOMoZ+bK6ugxlqDxkWxF/I/bI89BR/mpTEWIWk9n+Kj4wjPKv9PVqZfbM1jvCiiZ6NWQ/jsCd+K/owJ/gaJ6v0eatzpEn1rl6nZ0vs632rZz1SM1ZztG9n9Xe0b6z85zx+z2N5s2XPaPesV6W37NldSkuQ9nGezYPUC9mF/tZ8c/OgcKi2jeLy2yzc3r/KP+oz9dv81hnto75o/Xdmhj1lu+ff47i3zTQewzXqBOzz8Zqnu8/q1n1V3tX62VxWY/MluX2bJX8Soyvb/FttLn3t3nPHuOydVV71n9lzPo9YfN4VOZ+Tz7e220+81tcddRlqIrUDXFV8R9tfbVYZvto/VZ6ZrGZbdbX+0f5R32j+lbTRouNa7PPxrs1Mev/df9R/Ht8e7ufr+Ds89q896zUrMb63nflZD0y29X9qz1aXBYbbXFd3a/FHdWe5R/t3/LOPraHOPo9VeY+38d7e5vbfr19FG85Pj7OdRmKiDy4Piv+0VZnwhjlHvFl4pzVyfaY2WZ1vL+Xb3YbfU6b9+wW1/wxprKOMVavN96piV5P2f8gcBT/Hs/e3uaj588ufs58jZ+e36uZP8up2I7WXc3L4jPb1Xs+2sPvw2rY6H2r86Pasz5X7MFq+fFMXZ87mjdf9vh92Nzq2Bjtto5jjP/LHw07rnuHaHb/tL33Ync811nxj840w8HjNpqPehje1svGWY75s/jMZvGVsZfv7X5uNTOb+bKxF9+zZzUy252ayPodsbUzxier47Hw8VnsLraj+Puz+rN4u59bTGYzn40+ps2rj+UfHX3flRqreVl8ZpvtYSVnJXbUt9W5qtZMe9brzDg6S8935nw+tzL3e/Dx3m7zzJ/ZRvHmayPFX4ayA/Zsmd0feKf5TPxn9noFDrMa0R/Xs/1n8ZltVsf7s/yKLYvxdf18Fjvz+1pxfqcmYq8j697ZMrvZbDzS7+mco/i3M/YeO0OGQ2azeBt9jJ9n/pHNfNUx62W5zVd9LKc3Zn0yWy+/Z7f9Zf6r6me1j9qOaq/1s/PYeHQPWX7VlvX0uZW5r+Hjvd3mmT+zjeLN10bKy9CZA/vDo+dnxD/a+wifUZ73jWo0X+bPbL5mnGfxmc3yRr5ezCjH+/zcasWxxVTiWt5KrO9zlyZ8j6Pz2dmj/ygGR/d3Rd5R/OPZs71kMZkt5vqYNq8+sc7K2vdczVvNzeIzm+1j5LMYP7Z4n+PnPq46t3rVsVr3Ku1l58ts2b6yuKptVs/XifO2zp6sptl8jZGt+bJYy7FRlyFDAjAeFf9sqxXiYw2f4+c+rtl7vhY38vk6Ns/iM9so3nw2+nw/N38cLcbG6G/r5jO/zStjzM1qR9tdmoh9jqwNg15u9Md1L28n+1H8K2fNYjJbxGMWM/PHepX1kZqWY2OlT4vJ4jOb1Rv5LCYbLc/GLGZka3mWa+MovvmqcS32iPay+tEW17099+JW7b6+z63Me7nebnNfz2xtzOyZzef8mxcNO67jQeLa73nk83E7zI+If7bvo+e3PBtnfTL/am4Wn9lar5497sPibIz+uLY4G6M/rq+Oi/Xv0ETscXQ9O3v0x/XRvk/mHcV/dtaev2f3Z7aYNq4+vk51bv2q8S3O5/h5pUYWn9lin0rtGNOrG+P8uuXEvLj28X5ejWs5q9rL9mW9ra+NZh+NvdhVu+/hcyvzXq6329zXM1sbM3tm8zn/5kXDjut4kLj2ex75fNwO81Xxz/Z85uxncm1fKzV6sZk9s1nPOK7E+txq3tVxfg9tfrUmYv0z69nZoz+uz/R+Kvco/rOz9vw9u53X+/3c/G309t7cx4/mPn8U530xJ659bJz3YjN7Zov1RmvLt3EUO/NVa1TjWr+q9lpNq2tj3K+Pib5s3avTYo/6Yq6vE+dtnT3ZXs3ma5gt9jR7L9b8/+b5xa7zeJC49vse+XzcDvOq+Ct7PXPuM7l+byt1erHRHte+XzZfjbca1byr46y/jVdqwmpeNc7OHv1xfdU+7qxzFP/RWY/62jl9rp97DMzeRntiro/vza1Oz5/Zs5zMluU2Wy822uO6V69nj/lx3cvr2av51bjWZ6a9VivWi2u/35FvJW5WZ+Tv+Xp2v6/ZvFcj2uO6V5fy/zPUDpMdsNkye+/waPtM/JX9XXHmqzCr1hnFma+NNq/gYDFHclpuNe/qONu3jVdowmrdMfbOn9kz2x17urLmUfxHZz3qa+fyuTZvY/YYDj7ObKPRao1iom+UY/1jTlyP4sw36hPr9dZWq+c/Yq/WrMa1PRzRnq/f5n7dasb1nWeNtUe9o2+2jrVHZztS6996WZPdbPFwtr9m98+/B3L/Sq7F7ToeEb+d0c599mw9bI/UrdSaxZw916x+71zVvKvj4n6OaiLWuXNtHPkx61fFKstF2Y7gPzrnyNfOOPJHX1zPMBrFN589szqr/lFfqzWLuWJvV9Sw/cZxtn+Lr8a1+KPam51zZQ+2bz8eza/m9eJ6dtvbzL8cZwkan0fgiPiv3GVVTNWeV9er9vVxK3tosf7xdXpzHz+b92qM7GhNjPb2Bd8R/JsOsk/P7mNHMdEX176On7c4e7z9zrn1q+7xrr08tQ/fZzavnrWqPd+vWttyVuNX86r1W1yldovpfcxndVbHWLffKUZqfTkCVfFf3lgFt0VAmsBSI/yx+H+5u7SHZV+XISD+Ej8Q/E1bSxNYYoQ/Fv8vd5f2sOzrMgTEX+IHgr9pa2kCS4zwx+L/5e7SHpZ9XYaA+Ev8QPA3bS1NYIkR/lj8v9xd2sOyr8sQEH+JHwj+pq2lCSwxwh+L/5e7S3tY9nUZAuIv8QPB37S1NIElRvhj8f9yd2kPy74uQ0D8JX4g+Ju2liawxAh/LP5f7i7tYdnXZQiIv8QPBH/T1tIElhjhj8X/y92lPSz7ugwB8Zf4geBv2lqawBIj/LH4f7m7tIdlX5chIP4SPxD8TVtLE1hihD8W/y93l/aw7OsyBMRf4geCv2nrr2nC/pP6VTpW46t1Le5r+Nu5NeIRkPawHOgyBMRf4geCv2nrL2lidrHJ/JntSiq/hP+VuKnWeQSkvfMYnqmgy9AZ9E7mSvwnAXxh+lFNtEvCkQcFYeVSk8VktivPcBT/K/egWt9EQNrD8q7LEBB/if8P+Hf/yP3p9HOG6vtzF39WT2oCdfZq3ywus/1B7/zsSfzP71YV3oSAtIdlU5chIP4S/x/w7/6R+9Pp5wzV9+cu/qye1MTTZ2/9VnpmsZntD3rnZ0/if363qvAmBKQ9LJu6DAHxl/j/gH/3j9yfTj9nqL4/d/Fn9ZQmnj5367faM4vPbH/QOz97Cv/zO1WFtyEg7WEZ1WUIiP8u4rcfKj/2YPExNs9im88+Fmej2dtoNj96v8293+bm82Pz2cfibDR7G83mR+9HzZ/SRDv36ONxGc1HNZrPcm0+i/f+bI+ZzeecnT+F/9l9Kv99CEh7WE7H34jYvb2++w7i7/24ZPbM1kjK7Gaz0ZNZtVlOFv9EX+v/5PiUJnqYrpx1ViP643rWK4vPbLM6K/6n8F/Zk2K/gYC0h+VZlyEg/mjxz35YvN/PM8iiv62jzfIye2Zr8T17r1aL7+Vk9sxmtRHjE5q44syjGs2X+TPbCOMsPrNZjZHPYmbjE/jP9iD/NxGQ9rC86zIExB8t/pUfj1ls9Me1hznzZbaW07NbveiPa4vr1RrF+9yn5k9o4siZfY6fe1yavefr4e/z4zyrldksb+SzmNn4BP6zPcj/TQSkPSzvugwB8UeLf+XHYxYb/XHtYc58ma3lNPvsmdU2f9Yjs1k8YrxbE0fPa3k2HsFmNTeLz2xtLz376j7vxn91P4r/DgLSHpZrXYaA+KPFP/sB8X4/zyCL/rj2OZkvs7Wcnt3X8/NRfObLbL7e0/M7NXHmrGdyDcOVGr3YzJ7ZrOfqeCf+q3tR/LcQkPawfOsyBMQfLf7Zj4j3+3kGWfTHtc/JfJmt5fTsVi/649rierVG8T73qfldmjhzzjO5HreVOr3YaI9r3+/I/C78j+xFOd9CQNrD8q3LEBD/HcTf+zHJ7JmtwZfZM5tBnfky2yj+ib7W/8nxak00XEfYVs52Nt96VOuM4szXRptb/SvGq/G/Yk+q8Q0EpD0sz7oMAfHfRfz2w+LHHiw+xuZZbPP1Pj2f1cv83mfzrH6Wa3E9n9Xr+S3/ifEKTVx5nisxqdSaxdjZ7uLiCvzv2pvqvhsBaQ/Lb/8XC7uvT3SX+D9B89Ihd9LE7GKydLDOXxBXa9wdvxP+d59V9fdCQNrD8qHLEBB/iR8I/qatpQksMcIfi/+Xu0t7WPZ1GQLiL/EDwd+0tTSBJUb4Y/H/cndpD8v+r0aAHmEgDUgD0oA0IA1IA1/VgP4yBLyMNtHpIwQ8AtKER+P5ufB/HnN1/I2AtIdVgi5DQPwlfiD4m7aWJrDECH8s/l/uLu1h2ddlCIi/xA8Ef9PW0gSWGOGPxf/L3aU9LPu6DAHxl/iB4G/aWprAEiP8sfh/ubu0h2VflyEg/hI/EPxNW0sTWGKEPxb/L3eX9rDs6zIExP9t4n/qP9J3dR+gBP5q/TZN/HXAzQ3Cf3OCXrw9aQ9Lri5DQPzfJv7eJaXZ41OFPauZ2ar1do97myZ2xzvuT/hHRLR+CgFp7ymk8z66DOW4PGJ9m/h7l5Roj+sVsFtu5VmpuVPs2zSxE7aVvQj/CkqKuQMBae8OVOs1qS9DZ35U6xDdF/k28ff4iPa4riKc5VVt1R7ouDdpIuMGje+s/5vwz85a5aQal/WQ7RgC7Npj1wztZagBzw4+u/jbK288xNF/HUSe/NrPfU5lbrk22n4qubvGvEEThq3nxWy7j2/CP8O6ykk1Lush2zEEmLXX9MKuGbrLkIFu4zHZ7ZHFLP4MwexlmNkyf6ydxURbXMcaLOs3aYKRkzfhn2m+ykk1Lush2zEEGLXXdOKfYyffI4vuMuRhY39hGcXv8Y/zyEdcW7x/eXoxPtbmbbRcb7P5yGcxu49v0sSM2x25eBP+Gb5VTqpxWQ/ZjiHArj12zegydEy3l2Sxiz+CcPXL4Ou1uV/H3n69Euvzdpi/SRNVvnbA3fbwJvztTH6sclKN87U1P4cAu/bYNaPL0Dn9nspmF388vL0MNkb/yvqKGiv9doll1UTjyz8NT0YOWfGv6rfKSRbn+bV51tdyLcZGi7W1jWb3o/n86P1vnLNrr3HF/KHePTv47OL3ws++tLwtm/v80TzL7dlGdRh8jJpoXMSP8RPtu68Z8V/B1HipjL5uxnHzZ3ar7fMtthfvY7MYy/dxb5uza6/HGwtPf3+Lsey88yISbf8fdvE3rP0XX+9lyOyZrcddNbYa1+uzg51NEyPMR74dsM72wIZ/doaRrcqJj/PzrHb0x7XlVOy9mFkN8zOP7Nqbcbc7N7oMARliF3+ErvcyRHtcxzpx3eKrT8xlW7NpYsTlyLcrL2z4r+JY5cTH+XnWL/rj2nIq9l7MrIb5mUd27c24250bXYaADLGLP0I3ehm8z89jjWxdja/GZT12sbFpYoT5yLcL3nEfbPjH/c/WVU58nJ9n9aM/ri2nYm8xs8fqvW1k116PXxaedBkCMsUu/gjd6GUwn40xd7RuOdVnVIfBx6aJEZ8j365csOG/imOVEx/n51m/6I9ry6nYezFW480ju/bYudNlCPh2sYs/Qjd7GWb+WM/W1bxqnNXdcWTTxAjzkW9H7Nue2PBfxbHKiY/z86xf9Me15VTsvZhZDfMzj+zam3G3Oze6DAEZYhd/hG70MpjPxpg7Wrec6jOqw+Bj1ETGqfHFgLnfIyP+fv+zecZVlhPj4tpyMntma/FVezXO9vCWkV17Pd5Y+NFlCMgUu/gjdNnL0GzRntlirbiONVb9MX7XNasmjFMbG74zznbkgBX/KpZVTrI449aPWd8sd6SHLN73sHnW6002du1lPDLxQ30ZYgI62yu7+O1M9mXlXwazWUw2WozP83Ezv49t89X4mL/D+i2a2AHLI3sQ/kdQU84VCEh7V6B4vIYuQ8exO50p8Z+G8HUFpAkspcIfi/+Xu0t7WPZ1GQLiL/EDwd+0tTSBJUb4Y/H/cndpD8v+r0aAHmEgDUgD0oA0IA1IA1/VgP4yBLyMNtHpIwQ8AtKER+P5ufB/HnN1/I2AtIdVgi5DQPwlfiD4m7aWJrDECH8s/l/uLu1h2ddlCIi/xA8Ef9PW0gSWGOGPxf/L3aU9LPu6DAHxl/iB4G/aWprAEiP8sfh/ubu0h2VflyEg/hI/EPxNW0sTWGKEPxb/L3eX9rDs6zIExP/L4u/9hxY9HZUYH/+G+Zc1sQN/wv/6/3J47z3u2XfQAWIP0h4C9T89dRn6g8Xjsy+Lv/dF6O1+/jg5oIZf1gQI8h9thX//MtTex/j8AG+wyN7lzDYo8XqXtIelWJchIP5fFn/vi9Db/RxI06Otv6yJR4HuNBP+48uQh+3M+9lyK4/v9/a5tIdlmPIyFF8iLITHu39Z/L0vUm/38+Moc2W+SROM/L0J/6PK7/EW7XFd7ZflVW3VHoxx7NrLOGTige4ylAGe2RhIYBf/KsaNp97TavV83r7aky3+TZpovLF93oT/Cvb+HfNzXyPy6dd+7nMqc8u1seX4eaXGG2KYtdf4YueM6ttqBPbIt+uLwiz+s5hmfEVbXJ/tyZD/Jk0w8vcm/I/qPeNtZsv8sX8WE21xHWu8ec2ovcaXf5j50WUIyB6j+K+CK37pxXXrk9mu6r9rnTdpgpG/N+F/VOORt7i2us3uH7NnY6xheb3YGJ/Fvc3Grj12znQZAr5R7OI/Cp19Ec5enpn/aP+d896kCUb+3oT/UZ1fzZuv1+Z+PdrjSuyoDouPXXtVXnflg+oyNAKRkQh28Y/4GPn8l5zxZrbKOKrN7mPVROSt8WDcMnHCiv+VGBtvNp6pfUWNM/2Zctm1x871Ky5DrCSwi//IF41xZWOr4ee+Zs/uY942Z9RExlOzZfbd+WLE/0pMjTfPnbdl82r/LLdnq9Z8Uxy79hqXzB/u3Q9+SBlIYRf/EYzthbGxV8N/SfZi3mhn08SIx5FvV+7Y8L8KR3vfWr0eb5k9s/X2VI2txvX6sNrZtcfOG/VliB18dvGvful4vvw81jFfHGPcG9dsmjCOMi5Gvix+Bxsb/ndg1uMt2uN6tpcWX31mtd7oZ9feqh5245D2MsQOfBMCu/hXxew58/NYx3xxjHFvXLNpwjjKuBj5svgdbGz434HZiDfv8/PKPqrx1bhKT6YYdu2x80Z5GWIH3V5QdvHbOY6MPQ69vTc/0o8lh00TnqOI8cgXY3dZs+F/B24j3sxn40r/llN9Vuq+JZZde0c0sRN3dJchdsA9+ezi92dZnWc8RttsvdqTIZ5NE5Ejj/HI5+N2mrPhfwd2M95m/t6eqnnVuF4fVju79th5o7oMsYMdX1J28cfzrKwjl3HdalVtK313j2XURI+nzC78d0cgf+9s18apjWavjC2n+lTqvS2G8d33HBzRhM9Hz+kuQ6OXCQ3man928a+e18dXXpxKjK/5hjmrJuJ72bhg5I8V/yu1n/Fm/Po+mc37s3lW28fN/D72bXN27bFzR3UZkvjfg0DlxanEvAeR3ydh/0Jk5+PL+Lf3zR7jMa7N7keLaWP2mfljzmp8zGddf1l7O3CWq3eHnX1gDxL/B0hePKI0sQjYxeHC/2JAVa6MgLRXhuqWQF2GboG1VlTir+H0pShpAsu28Mfi/+Xu0h6W/V+NAD3CQBqQBqQBaUAakAa+qgH9ZQh4GW2i00cIeASkCY/G83Ph/zzm6vgbAWkPqwRdhoD4S/xA8DdtLU1giRH+WPy/3F3aw7KvyxAQf4kfCP6mraUJLDHCH4v/l7tLe1j2dRkC4i/xA8HftLU0gSVG+GPx/3J3aQ/Lvi5DQPwlfiD4m7aWJrDECH8s/l/uLu1h2ddlCIi/xA8Ef9PW0gSWGOF//X85fPQfY8SyvVd3aQ/Lhy5DQPwlfiD4m7aWJrDECP/+Zcj/l6FtXmUruxBltmq9N8ZJe1hWdRkC4i/xA8HftLU0gSVG+I8vQ56dM5cZu0zNRt/v7XNpD8sw5WUovkBYCI93f7v4I0/Z2tBrvupnJbZac5e4N2mCkac34X9U0z3eoj2uq/2yvKqt2oMxjlV7jTv/MGLf9lz/BdrkhG96aVjFX5VCxtUotxJfiRn12N33Jk0wcvUm/Fe03rjKHl8j8unXfu5zKnPLtbHl+HmlxhtiGLWX8ZTZGPihugyNQB75diWCUfwrWB7hZIG878sAACAASURBVJQz8q3sa+fYN2mCka834X9U5xlvM1vmj/2zmGiL61jjzWs27Y24Gvl25VCXISAzbOJfheroC5HlZbbV/TDEv0kTjJy9Cf+jeo+8xbXVbXb/mD0bYw3L68XG+CzubTY27Y04Gvl25Y3qMjQCkRF8NvGP8M98RznJ8jJb1pPd9iZNMHL2JvyPvgtX8+brtblfj/a4Ejuqw+Jj096Ix5FvVz5ecRliBL4Jgk38qyI+w4vP9fPVPbDFs2qiceSfhjsjb6z4X6lz483GM7WvqHGmP1Pum7THyDvtZaiBbQ+T4P1e3yR+fy6bGz+90eJ6o+X1/G+0M2qi8RQ/rNwx4h+xP7M23jyn3pbNq/2y3J6tWvNNcW/RXuOU8cO564A0K/hvEX+g47/lWV7si/K/gh+YsGlixPHItyuVbPhfhaN/13q8ZfbM1ttTNbYa1+vDan+D9pi5e8VlqImfkYQ3iH/0xXOGE5/r56N+b/CxaWLEzci3K1ds+N+BY4+3aI/r2V5afPWZ1Xqjn117q3rYjUOqy9AI7JFvN9BtP+zit3P0xqOcZHmZrdeX2c6miREvI9+uHLHhfweOI968z88r+6jGV+MqPZlimLX3Bs50GQK+Lczir8B29AXJ8jJbZQ9sMWyaGPEy8u3KCxv+d+A44s18Nq70bznVZ6XuW2JZtXdECztypssQkBVW8VchO/KSjHJGvuqedo9j08SIk5FvVx7Y8L8DxxlvM39vT9W8alyvD6udUXtv4orqMtREnoGf2RheCEbxr+C6ykslvhKzssfdYhk1kXHSbJl9N7zjfhjxj2c4ux7xZj4bV3q1nOqzUvctsWzaO6KBnbmiuww1MOMLtTPAo72xiX90lsy38rLcFZvta2cbqyayd3KF0104YcX/Svwy3oxf3yezeX82z2r7uJnfx75tzqY94783svFDeRliA7m3Xzbx984h+3UISBPXYXmk0pfx9z9qhp3ZbJ2NFtPG7DPzx5zV+JjPuv6y9nbgLFfvDjv7wB4k/g+QvHhEaWIRsIvDhf/FgKpcGQFprwzVLYG6DN0Ca62oxF/D6UtR0gSWbeGPxf/L3aU9LPu/GgF6hIE0IA1IA9KANCANfFUD+ssQ8DLaRKePEPAISBMejefnwv95zNXxNwLSHlYJugwB8Zf4geBv2lqawBIj/LH4f7m7tIdlX5chIP4SPxD8TVtLE1hihD8W/y93l/aw7OsyBMRf4geCv2lraQJLjPDH4v/l7tIeln1dhoD4S/xA8DdtLU1giRH+WPy/3F3aw7KvyxAQf4l/DH7vP+I2zsq9V9bKO1xjlSauwfFoFeGf/5NHR/Fseb13r2c/04s5V9rDsqfLEBB/if/nP60Sqbjyy/LKWnGfV66liSvRXK8l/MeXl/Ye+aeKcPb+ZbZqvTfGSXtYVnUZAuK/q/j9l93ReQ/WWK8X1+yrX5ax9sp6tI8nfbtq4kkMkL2Ef/+9i+9jXK/wVn03V2qyx0p7WAbpL0P2UmFhPNadXfxnvgwbYrP8mX+Gei+/Z5/Ve8LPrgmP0c44+336+Zvw9+damfd4i/a4rvbI8qq2ag/GOFbtNe78w4h92zP1ZcheIBvZSGAV/7/C6fyjjCMO/AvTm/v8K3jNamQ23xc5Z9ZExG1nnONebf0m/O1MlbFxlT0+N/Lp137ucypzy7Wx5fh5pcYbYhi1l/GU2Rj40WUIyBKj+BtcV4m9V6fZe88qXbFHXK/WuzueVRMZLrtjne35Tfhn56vYMt5mtswfe2Ux0RbXscab12zaG3E18u3KIe1lyIPt57sCne2LTfztDGexbvm9J2IUe8V1Ft+rXbHHeog1oyZ6OM346uUh7W/C/yiOkbe4trrxnTJ7NsYaltuLjfFZ3NtsbNobcTTy7cob5WUoAh3Xu4Id98Uq/oh3XMdz+rWP7c0t3vubLa4tzsaZ3+J2Htk0McKSkY834T/iZuS7mjdfr839eraPauyoDovvTdpj5E2XIeCbwiR+L24/N/gym/n82OJ6j49r81gzro/Ez2rEmk+vmTThsYmcNt/uWPv925wVf9v/FaPxZuOZmlfUONOfKfct2mPlnO4ylAGd2RheAhbxR3zj2rDu2c3fRh/Tm1u898dci/FjJT7G+Pwd5iya8FhlmDZbZvd5O84Z8b8SR+PNc+dt2bzaP8vt2ao13xTHrD3PIysnugwBmdtd/CbwCFGz9z4jX8uxmtkYa8ZacV2Jz/pktlgLtd5dExGXEScjX6yzy5oN/6tws3ei1evxltkzW29P1dhqXK8Pq/0t2mPlr/+rtqGieiD37Bse4ceWdhV/w3OE6cjXDjjzGwijuMyX2axW7NuL7dl9HeR8V030MBnhOfL16qHtbPjfgVePt2iP69leWnz1mdV6o/9N2lvVxg580l2GZi/TDqBW98Aq/pnQZ37DZxSX+TKb1Wqj9/t5L8bbd5mzaaKHc+RjF3xn+2DDf3aeI/4qp6O4rG81vhqX9WC2sWlvxNPItytHVJehHoiMwLezsInf8D+Dd8vtPVa/jVmPzJbl+LheL2/3NdBzNk14rCN2I1+M3WXNhv8duI14M5+NK/1bTvVZqfuWWDbtjTQw8u3Kly5DQGbYxG9QXSX0UZ3Ml9lsT22c+asxvubTczZNjDAf+Z7GtdqPDf/quVbiZrzN/L1e1bxqXK8Pq51NeyOeRr5d+dFlCMgMm/gNqquE3quzam/76uXYnm2sxln80yOjJjJMmy2zP43naj9G/FfPOIsf8WY+G2e1vL/lVB+f95U5o/YyHWQ2Bg51GQKyxCj+BtdVYo9fjEZFr37PvrKnUQ3rjxyZNeH5XOEEiXfszYp/PMeZdfaOGLe+bmbz/mye1fZxM7+PfducVXumAxtZeXnFZYgVfGbxH8HcXhY/xjrN5z+jWIuLOc3u86pzq4ccWTWBxOzK3l/G378nhqnZbJ2NFtPG7DPzx5zV+JjPuv6y9nbgLFfvDjv7wB4k/g+QvHhEaWIRsIvDhf/FgKpcGQFprwzVLYG6DN0Ca62oxF/D6UtR0gSWbeGPxf/L3aU9LPu/GgF6hIE0IA1IA9KANCANfFUD+ssQ8DLaRKePEPAISBMejefnwv95zNXxNwLSHlYJugwB8Zf4geBv2lqawBIj/LH4f7m7tIdlX5chIP4SPxD8TVtLE1hihD8W/y93l/aw7OsyBMRf4geCv2lraQJLjPDH4v/l7tIeln1dhoD4S/xA8DdtLU1giRH+WPy/3F3aw7KvyxAQf4kfCP6mraUJLDHCH4v/l7tLe1j2dRkC4i/xA8HftLU0gSVG+GPx/3J3aQ/Lvi5DQPwlfiD4m7aWJrDECH8s/l/uLu1h2ae7DPl/tybOsVCud/+S+D1XhpS3zeaW8/bxTZponLJ93oR/hn2Vk2pc1kO2Ywiwai9+dx87PT6L7tvqTS8pq/iPyrbCXSXmaH+GvDdpgpHLN+Gf6b3KSTUu6yHbMQQYtZfpJLMdQ+TZLF2GnsX7RzdG8f84wOKi8pJUYhbbUoW/SROMXL4J/0z4VU6qcVkP2Y4hwKa9kUZGvmPo3J+ly9D9GHc7sIm/e5Cio/KCVGKK7SjD3qQJRi7fhH/2AlQ5qcZlPWQ7hgCb9kYaGfmOoXN/Fu1lqIFtz/0w3dOBTfxnUai8IJWYs/vYOf9NmmDk8k34ZzqvclKNy3rIdgwBNu2NNDLyHUPn/izKy1AEOq7vh+2aDmziP3vqCk+VmLP72DmfVRONN/80jBm5ZMW/qukqJ1mc59fmWV/LtRgbLdbWNprdj+bzo/e/cf4m7TXe2D50O+6B3LPvTMibxF/BucJRJabSizWGURMZZ82W2XfnhRH/FUyNl8ro6/a4zOxW2+e3+cjuY7Oalu/j3jZ/i/Z6/O3OF91lqAcoIwFvEX+Pk2ivcFSJiXXftGbTxIivkW9XztjwX8WxyomP8/OsX/THteVU7L2YWQ3zM49v0N6Mv5350WUIyM4bxL8CX+VFqcSs9GSLZdPEiK+Rb1de2PBfxbHKiY/z86xf9Me15VTsvZhZDfMzj+zam3G3Oze6DAEZYhf/KnSVl6USs9qXKZ5NEyO+Rr5dOWHDfxXHKic+zs+zftEf15ZTsbeY2WP13jYya6/HLRNHVJehEeAj366EMIv/CKYVjioxR3qz5LBpYsTXyLcrH2z4r+JY5cTH+XnWL/rj2nIq9l6M1XjzyKq9t3CmyxDw7WIV/1HIKi9NJeZof4Y8Nk2M+Br5duWCDf9VHKuc+Dg/z/pFf1xbTsXei5nVMD/zyKi9GV9MfFBdhhqwGfiZjYEERvGfwbXCUyXmzB52z2XURMZZs2V24Y9FoMpJjItrO0Vmz2wtvmqvxtke3jKyvfs9nlj5oLsM2UvViLCHFXw28Z/B2biavUAz/5k9MOSyasLzaxzayIC77ZEVf9v/bKxyksU1W3yyfllui1uxxz693Kw/q41NexlH3sbGA+VliA3k3n7ZxN87h+zXISBNXIflkUrC/whqyrkCAWnvChSP19Bl6Dh2pzMl/tMQvq6ANIGlVPhj8f9yd2kPy74uQ0D8JX4g+Ju2liawxAh/LP5f7i7tYdn/1QjQIwykAWlAGpAGpAFp4Ksa0F+GgJfRJjp9hIBHQJrwaDw/F/7PY66OvxGQ9rBK0GUIiL/EDwR/09bSBJYY4Y/F/8vdpT0s+7oMAfGX+IHgb9pamsASI/yx+H+5u7SHZV+XISD+Ej8Q/E1bSxNYYoQ/Fv8vd5f2sOzrMgTEX+IHgr9pa2kCS4zwx+L/5e7SHpZ9XYaA+LOIf/Rffx35RtAezRvVfIOPRRNvwDo7g/DPUJHtCQSkvSdQ7vfQZaiPze0eFvGPLi4jXw/AUU7z9Z5evTfZWTTxJsz9WYS/R0PzJxGQ9p5E++9eugz9jcljFgbxjy4uDaiZPwPT5/j5qF6My+pafou1pxe3q51BE7tid8W+hP8VKKrGEQSkvSOoXZdDexmyH7vqj+R1kF1XiUH8M3xnfo+WcWa2LDeztfie3XyxttmtF8vIoIkqliPOqjWejnsT/hl2VU6qcVkP2Y4hwKo9++618djp8Vl0l6EM8MyGh3a+g93F33CdfSoxvoaP93OLyWzN17NbXjYeycnqPGnbXRMrWAj/FbSeia1yUo17Ztff6ML47mc6yWwMDM5/7TY7RQ/onn2z7f/Yzu7ir2Baiflx6P+/2PTyVu2xtl/3avmY3ea7a2IFL+G/gtYzsVVOqnHP7PobXdje/ZFGRr5d2aS6DDECPCJ+Z/E3rD3etl4ZR2e32jZa7Ki+xVTGWNfnjHw+DjHfWROreOyMc+8sb8I/O2OVk2pc1kO2YwiwaW+kkZHvGDr3Z+kydD/G3Q67it+EbGP3ABf8z1exR1xb757d/HEcxY98sc7T6101cQSHnXHunedN+GdnrHJSjct6yHYMgTdpj1E/lJehBrR/jkkPn7W7+CuCrsQY0p4zmzefr+HnlhdjvL0379U5UqvX4w777prondn4tHF3nHvnYMW/d55oH70XPjaLM2796HNsbrk+zmwtpme3/CzG5/u4N83foj1WruguQxnQmY3hJdld/BVcKzEZFz6vN/d5Psbb/bzF9J4Y59c7zXfXRIZVxo3xkMXvbGPEfwVP46Uy+roZx82f2a22z7fYXryPzWIs38e9bc6sPeO8xx0DV3SXoR6ojCTsLv4KppWYjLNe3qq91W45Ps/PrbfF2Gj23cbdNRHxyrC2mJHPYnYb2fBfxa/KiY/z86xf9Me15VTsvZhZDfMzj2/R3ozDXTnSZQjIzO7ir4i6EuMhtvg4Wkyz9x6L8aPVmdmi33p4+w7z3TURMcrwt5iRz2J2G9nwX8WvyomP8/OsX/THteVU7L2YWQ3zM49v0t6Mxx150mUIyMru4q8IuhLjIbb4OFqM2W1tY2av2qyGjT7Pz82PHHfXRMRmhN/IF+vssmbDfxW3Kic+zs+zftEf15ZTsbeY2WP13jayaa/HZ+Nl5NuVN12GgMzsLv6KoCsxHmKLtzG+ON6e5R2xzXK8Hz3fXRMRnx5fLW7ki3V2WbPhv4pblRMf5+dZv+iPa8up2HsxVuPNI5v2RlyNfLtyqMsQkJndxV8RdCXGIPaxlbnltdHHmz3a4tri/FiJ8fFPz3fXRMRjhOfIF+vssmbDfxW3Kic+zs+zftEf15ZTsfdiZjXMzzyyaW/E1ci3K0dUl6EGYgZyZtsVcL+v3cVfwbUSY2f2sX5u/jau2H2sn/t6fl6J8fGI+e6ayDDJcG22zJ7l72RjxH8FvyonMS6urWdmz2wtvmqvxtke3jIyai/jKrMxcER3GbKXqgFuDwPQ2R53F39F1JWY7Oy9vCP2Xo7vW4nx8aj57pro4dLw9U+LY8Hcn4kVf3+G0bzKSRbn+bV51ivLbXErdqvvx6zXm2ys2vMc9Thm4InyMsQAbGWPu4s/CjuKfrSenf/O2r637dHbdp7vromdsbtib8L/ChRV4wgC0t4R1K7L0WXoOiyXK0n8y5C9PkGawFIs/LH4f7m7tIdlX5chIP4SPxD8TVtLE1hihD8W/y93l/aw7P9qBOgRBtKANCANSAPSgDTwVQ3oL0PAy2gTnT5CwCMgTXg0np8L/+cxV8ffCEh7WCXoMgTEX+IHgr9pa2kCS4zwx+L/5e7SHpZ9XYaA+Ev8QPA3bS1NYIkR/lj8v9xd2sOyr8sQEH+JHwj+pq2lCSwxwh+L/5e7S3tY9nUZAuIv8QPB37S1NIElRvhj8f9yd2kPy74uQ0D8JX4g+Ju2liawxAh/LP5f7i7tYdnXZQiIv8QPBH/T1tIElhjhj8X/y92lPSz7ugwB8Zf4geBv2lqawBIj/LH4f7m7tIdln+oyZP/OVG/EQrne/S3ij//O2AiJldhRnbf63qCJ+H4ycfUG/O/E23NrfbxtNrccjX8jwK69xj3zh3v3DnlGItjF7+Dv/ovUqzE+/otzdk0wvodeZ+z4+7PcNa9wXIm5a3+sdZm11/hm51yXIeCbwyz+CFvlRajExLpfW7Nrgp1jdvyfeF8qHFdintgrUw9G7TWe/cOEd9zrKy5DrC8eo/ijgGxd4aASY/W+OrJrgp1jdvyfeG8qHFdintgrUw927bFzrssQ8G1hF3+EbvQyjHyxzpfX7Jpg55kd/yfenQrHlZgn9srUg1177JzrMgR8W9jFH6EbvQw9X8/eame+ZotP3AfzmlUTkRNbs3HBiv+TODduZ59KzKzG1/zs2mPnfK7qzRXJTAC7+DNpZHxkNstd8fVie3brwTSya4KdC3b8n9B6heNKzBN7ZerBrj12znUZAr4t7OLPoMteiMxmuVXfKK7Vmvmt3+4juybYeWDH/wl9VziuxDyxV6Ye7Npj51yXIeDbwi7+DLrshchsllv1jeJarZnf+u0+smuCnQd2/J/Qd4XjSswTe2Xqwa49ds6pL0Ps4LOLv/dF43nx8yx+5Pe+Np89WX02G7smPGds2Lf9suP/BOYVjisxT+yVqQe79tg512UI+Lawi78HnX8p/DyLH/m9z8+zOm+xsWuCnSd2/J94DyocV2Ke2CtTD3btsXOuyxDwbWEX/wi69mJUXo5eTMzvxdkeZn6L231k1wQ7D+z4P6HvCseVmCf2ytSDXXvsnNNehtiBby8pu/hHXzSNnwpHWYzZbLQ+cT2zm59pZNdEjyMWDtjxfwLnCseVmCf2ytSDXXvsnOsyBHxb2MU/gq69GNWXw2JttLpZvsX40eLfMLJrIuOMiRd2/O/Guvresevgbhyz+uzaY+ec9jKUiYnNxi5+NrwZ9itNYFkS/lj8v9xd2sOyr8sQEH+JHwj+pq2lCSwxwh+L/5e7S3tY9nUZAuIv8QPB37S1NIElRvhj8f9yd2kPy/6vRoAeYSANSAPSgDQgDUgDX9WA/jIEvIw20ekjBDwC0oRH4/m58H8ec3X8jYC0h1WCLkNA/CV+IPibtpYmsMQIfyz+X+4u7WHZ12UIiL/EDwR/09bSBJYY4Y/F/8vdpT0s+7oMAfGX+IHgb9pamsASI/yx+H+5u7SHZV+XISD+Ej8Q/E1bSxNYYoQ/Fv8vd5f2sOzrMgTEX+IHgr9pa2kCS4zwx+L/5e7SHpZ9XYaA+Ev8QPA3bS1NYIkR/lj8v9xd2sOyr8sQEH+JHwj+pq2lCSwxwh+L/5e7S3tY9ikvQ/4fC7Q5FsZj3SX+n7hl/9BfZvuZ9a7VGzRh76SNTAy9Af878TZO/XvpbbP5nXtjr82qvcg5Kw90lyH/EnrQe3Yfs9ucVfx34ZhxmNnu6r9DXXZNsPPFjv8TGq5wXIl5Yq9MPRi1l/Gc2Rh4oLoMzUCe+XcjhFH8T2PIxulZfNg1wc4XO/5n9VfJr3Bcian0+lIMm/ZGHI98u3KqyxCQGTbxI6BifKnO4MSuCXa+2PE/o71qboXjSky131fi2LQ34njk25VPXYaAzLCJHwEV40t1Bid2TbDzxY7/Ge1VcyscV2Kq/b4Sx6a9Eccj3658Ul2GGogN5Ah0ZtsVcL8vNvH7vfu558O48LYW6+029zUspmqzGn6MuYxrVk14HvycjQNW/J/EufE7+1RiZjW+5n+T9hj5n6t6U0Uyf+EapG8RvwnfRjufjVV7FhdtcW092jjy+bid5+yaYOeAHf8ntF3huBLzxF6ZerxFe6zc012GGtAR7MzG8BK8SfyRE8O/Z2/+6Ivraoz1esPIromMQyZe2PF/AusKx5WYJ/bK1OMN2mPmneoyNAN65t/txXiD+BumR3BvOTEvrnu1LTeL343j1f2wa4KdE3b8V/V2JL7CcSXmSO8357Brj51zXYaAbxe7+A262UvQ/PFpuTEvrrMY62mjr2s25pFdExmHTHyw4/8E1hWOKzFP7JWpB7P23sC3LkPAt4VZ/B620Yuw4stiM5vv7ecrsT5vpzm7Jtg5YMf/CS1XOK7EPLFXph6s2nsL17oMAd8WVvFHyEYvw4ovi422uPZ7Gfl83M5zdk2wc8CO/xParnBciXlir0w9GLX3Jp6pLkNN2D3we/adXwZG8Wd4jrDv+Zo9+uI64zuLsT2NfBaz+8iuCXYO2PF/Qt8VjisxT+yVqQeb9t7GMd1lqIm7kRAfJtHbXtnEb/uO4+yliFxZvI1WL66bvWdr9vhYHeaRXRMZX0x8sON/N9b+nRv1YtfB6Gx3+di057WQze/C6a66lJehu8B4ui6b+J/G54v9pAks68Ifi/+Xu0t7WPZ1GQLiL/EDwd+0tTSBJUb4Y/H/cndpD8u+LkNA/CV+IPibtpYmsMQIfyz+X+4u7WHZ/9UI0CMMpAFpQBqQBqQBaeCrGtBfhoCX0SY6fYSAR0Ca8Gg8Pxf+z2Oujr8RkPawStBlCIi/xA8Ef9PW0gSWGOGPxf/L3aU9LPu6DAHxl/iB4G/aWprAEiP8sfh/ubu0h2VflyEg/hI/EPxNW0sTWGKEPxb/L3eX9rDs6zIExF/iB4K/aWtpAkuM8Mfi/+Xu0h6WfV2GgPhL/EDwN20tTWCJEf5Y/L/cXdrDsq/LEBB/iR8I/qatpQksMcIfi/+Xu0t7WPZ1GQLiL/EDwd+0tTSBJUb4Y/H/cndpD8s+5WUo/qNwWAiPd5f4j2P31sw3aIL5/XwD/ne+G55b6+Nts7nlaPwbAVbtRc7/PhmHhe4y1ICPn8wWY3Zcs4p/Ryzfsid2TbC+i6YfdvztHHeOFY4rMXfukbE2o/YynjMbAx9/3yw23vUI5JFv1yMxin9XLN+yL3ZNML6HXjvs+Puz3DWvcFyJuWt/rHXZtDfieOTblR9dhoDMsIkfCNVnWrNrgvFL0IuLHX9/lrvmFY4rMXftj7Uum/ZGHI98u/KjyxCQGTbxA6H6TGt2TTB+CXpxsePvz3LXvMJxJeau/bHWfZP2GPnXZQj45rxJ/AZjewniY7429l6Sij3WtbWvzz5n1YRxEUc2PljxfxLnxvHsU4mZ1fia/y3aY+V+ruqNFDkCeeTb6Ag/tvIW8duhehx4u59bXhtn9p5/lOvrs8zZNTHiiYEDdvyfwLjCcSXmib0y9WDWXuPbHibM/V6pLkNt49lLxkoCs/i9iHq8WEzkLK57+T7Oz63uG0d2TbDzxI7/E+9EheNKzBN7ZerxFu2xck93GWribmD7x2xMwm97fYv4R7gbTz4mviy2ttFis3WzRbvFv2Fk1wQ7N+z4P/EOVDiuxDyxV6Yeb9IeI/+Ul6FM4Izgv0n8jZPGQXzM7jmLXNnaRouNa7NbzeYfxfh4ljm7Jtj5YMf/CZ1XOK7EPLFXph5s2htxPPLtyskrLkOMwDdBsIl/JOIRB5nPbDZabVvbaPbRuBI7qrODj10T7Fyw4/+EhiscV2Ke2CtTDzbtjTge+XblhOoy1AO4Z98VdNsXm/ht39k44iDzmc1Gq2lrG6Pd1n6Msd7HNmfXBDsX7Pg/ofcKx5WYJ/bK1INNeyOOR75dOaG/DDGCbmJgE7/tOxt7PDR75jN79I3sWd9mizV6cQx2dk2wc8GO/xMar3BciXlir0w9GLWX8ZzZGHigugw1QBvQ/mEAubdHRvH3zpJxYy+FjTH3iN1zb/NYl3nNrokepyycsON/N872zs14nvnv3idjfVbteU0w8053GWIUeW/PrOLvnUf28whIE+cxPFNB+J9BT7lnEJD2zqB3PleXofMYHq4g8R+G7rWJ0gSWWuGPxf/L3aU9LPu6DAHxl/iB4G/aWprAEiP8sfh/ubu0h2X/VyNAjzCQBqQBaUAakAakga9qQH8ZAl5Gm+j0EQIeAWnCo/H8XPg/j7k6/kZA2sMqQZchIP4SPxD8TVtLE1hihD8W/y93l/aw7OsyBMRf4geCv2lraQJLjPDH4v/l7tIeln1dhoD4S/xA8DdtLU1giRH+WPy/3F3aw7KvyxAQf4kfCP6mraUJLDHCH4v/+3hyFAAACGNJREFUl7tLe1j2dRkC4s8kfub/siiQ4uXWTJpYPhxBgvAnIOmlW5T2sMTqMgTEn0n8b7kM7X4OJk0AX53bWgv/26BV4QkC0t4EoJvdugzdDPCoPJP4j1wiKjmVmBGGq76n+63uj0kTq2djiBf+DCy9c4/SHpZXistQ9QesxdmDhbXWnUn8VQ78ySs5sxjjszL63r35rF8v7yk7kyZ6mESuenE72t+A/wjXqv6rcaNe8q0h8Abt2bu/dvI9ore/DFXAzWIy2x6Q/9nFTuI3vM6Mf072e9ZqzT6VmFmN5q/WqcZVet4Rs5Mmjpxvd3xnZ2LHf3a+Kj/VuFk/+esIsGvPNGNj/eR7RM5/rUD7bID6Z7SNHvg9+6jWkz4W8Vd5iNhV8K/ExLrZulqnGpf1eMLGookeFrvj29u32dnxt3P0xio/1bheH9nXEWDXnmnGxnUEsBnbXoY8LCNwR75WY+b3fZ6eM4jf8ItjBSvLGcVWYkb55qvWqcZZ3adHBk2MMNkd39Hem48d/9n5qvxU42b95K8jwKw9rxc/r58eH6nLEJADBvGbsONYgc1yRrGVmFF+863UWImd9b3Dz6CJ0bl3x3e09+Zjx392vio/1bhZP/nrCLBqL2olrusIYCN1GQLiv7v4vah78xF8PqcXV4np5Zp9pUaL9Y/V2GXcXRM9nDymft6L39XOin8Vz8ZN5ZPFeV5tntWyXIux0WJtbaPZ/Wg+P3r/G+es2msc+U9ce9/O85+n2HSnI3BHvnacmR955N3F77HrzUf4+ZxeXCWml9vsq/kxvq2jbdTvbt/umpidfycsZ3vN/Oz4Z2fyNtN7ZYx5fm3zjG+rbTE2juwW08as5sjuc5nnjNrLuMpsDLzoMgRkaWfxR0HP1hmMMedoTJbXbJX6MbeX0+w9X6xx53pnTVTOvQOGlX32Ytjx753L7FV+fJyfWx0/Rn9cW2zF3ouZ1TA/88iovYyvzMbAiy5DQJZ2FX8m5qptFc6sbqWG5dlYyWkxq/HVulfF7aqJ6vl2x3d2Dnb8Z+er8uPj/DyrH/1xbTkVey9mVsP8zCOb9npc9ey7c6PLEJChHcXfE/KqvQprr+4oP+bE9UruKBbh21ETKziscLFS96lYdvxnOFX58XF+ntWP/ri2nIq9xcweq/e2kU17M556fO/Kmy5DQGZ2Er8J2+Cw9WiMsbaujkdell5Ozx73Uo2LeU+td9LEkTPvju/sTOz4z85X5cfH+XlWP/rj2nIq9l6M1Xjz+BbtsXJIfxlqL0cP/J59lxeKSfx3YLlacxY/84+0Ik1cg0CFg2s63VOF6Z08gkCVHx/n51nP6I9ry6nYezGzGuZnHt+ivRmHu3L0mstQJKCto203EpjEfzWWK/VWuJzVnfnRGmHSRIbV7vhme/Y2dvz9WbJ5lZ8YF9dWO7NnthZftVfjbA9vGd+ivR5/u/P0isuQgdxIsMdsO49M4r9K4Cv8rMR6nkd7Hfl8DdScSRMZRrvjm+3Z29jx92fJ5lV+srhmi89Kj6xmy8/ssU8Wk/Vmtr1Fe6xcUVyGmAU+2juT+M8K3L7cRng84Tt7jrv3yKSJu7FA1Bf+CNTVsyEg7WF1oMsQEH+JHwj+pq2lCSwxwh+L/5e7S3tY9nUZAuIv8QPB37S1NIElRvhj8f9yd2kPy/6vRoAeYSANSAPSgDQgDUgDX9WA/jIEvIw20ekjBDwC0oRH4/m58H8ec3X8jYC0h1WCLkNA/CV+IPibtpYmsMQIfyz+X+4u7WHZ12UIiL/EDwR/09bSBJYY4Y/F/8vdpT0s+7oMAfGX+IHgb9pamsASI/yx+H+5u7SHZV+XISD+Ej8Q/E1bSxNYYoQ/Fv8vd5f2sOzrMgTEX+IHgr9pa2kCS4zwx+L/5e7SHpZ9XYaA+Ev8QPA3bS1NYIkR/lj8v9xd2sOyr8sQEH+JHwj+pq2lCSwxwh+L/5e7S3tY9ikuQyv/ntRKLBZ6/Vs0aPx37K8vRCwrwh+L/5e7S3tY9re/DK38A58rsVjYf3eX+HdgYa89SBNYPoQ/Fv8vd5f2sOxvexmyi42NI5gsxsZR7E4+iX8nNvbYizSB5UH4Y/H/cndpD8v+tpchD0u75FQ/K7HVmnfFSfx3IctbV5rAcif8sfh/ubu0h2W/fssA7nPlgrMSCzzSv60lfjQD+/WXJrCcCH8s/l/uLu1h2ddlCIi/xA8Ef9PW0gSWGOGPxf/L3aU9LPu6DAHxl/iB4G/aWprAEiP8sfh/ubu0h2VflyEg/hI/EPxNW0sTWGKEPxb/L3eX9rDs6zIExF/iB4K/aWtpAkuM8Mfi/+Xu0h6WfV2GgPhL/EDwN20tTWCJEf5Y/L/cXdrDsq/LEBB/iR8I/qatpQksMcIfi/+Xu0t7WPZ1GQLiL/EDwd+0tTSBJUb4Y/H/cndpD8u+LkNA/CV+IPibtpYmsMQIfyz+X+4u7WHZ12UIiL/EDwR/09bSBJYY4Y/F/8vdpT0s+xSXISxE93WX+O/DlrWyNIFlTvhj8f9yd2kPy74uQ0D8JX4g+Ju2liawxAh/LP5f7i7tYdnXZQiIv8QPBH/T1tIElhjhj8X/y92lPSz7vxoBeoSBNCANSAPSgDQgDXxVA/rLEPAy2kSnjxDwCEgTHo3n58L/eczV8TcC0h5WCboMAfGX+IHgb9pamsASI/yx+H+5u7SHZV+XISD+Ej8Q/E1bSxNYYoQ/Fv8vd5f2sOzrMgTEX+IHgr9pa2kCS4zwx+L/5e7SHpZ9XYaA+Ev8QPA3bS1NYIkR/lj8v9xd2sOyr8sQEH+JHwj+pq2lCSwxwh+L/5e7S3tY9nUZAuIv8QPB37S1NIElRvhj8f9yd2kPy/7/AdS3tbbRgBwxAAAAAElFTkSuQmCC;" parent="1" vertex="1">
                    <mxGeometry x="43.97" y="272" width="302.69" height="195" as="geometry"/>
                </mxCell>
                <mxCell id="8" value="DirView" style="rounded=0;whiteSpace=wrap;html=1;" vertex="1" parent="1">
                    <mxGeometry x="1400" y="380" width="240" height="40" as="geometry"/>
                </mxCell>
                <mxCell id="25" value="" style="group" vertex="1" connectable="0" parent="1">
                    <mxGeometry x="1400" y="80" width="240" height="280" as="geometry"/>
                </mxCell>
                <mxCell id="16" value="" style="rounded=0;whiteSpace=wrap;html=1;" vertex="1" parent="25">
                    <mxGeometry width="240" height="280" as="geometry"/>
                </mxCell>
                <mxCell id="17" value="ヘッダー" style="rounded=0;whiteSpace=wrap;html=1;" vertex="1" parent="25">
                    <mxGeometry width="240" height="40" as="geometry"/>
                </mxCell>
                <mxCell id="18" value="フッター" style="rounded=0;whiteSpace=wrap;html=1;" vertex="1" parent="25">
                    <mxGeometry y="240" width="240" height="40" as="geometry"/>
                </mxCell>
                <mxCell id="19" value="Dir1&lt;span style=&quot;color: rgba(0 , 0 , 0 , 0) ; font-family: monospace ; font-size: 0px&quot;&gt;%3CmxGraphModel%3E%3Croot%3E%3CmxCell%20id%3D%220%22%2F%3E%3CmxCell%20id%3D%221%22%20parent%3D%220%22%2F%3E%3CmxCell%20id%3D%222%22%20value%3D%22DirView%22%20style%3D%22rounded%3D0%3BwhiteSpace%3Dwrap%3Bhtml%3D1%3B%22%20vertex%3D%221%22%20parent%3D%221%22%3E%3CmxGeometry%20x%3D%22880%22%20y%3D%22380%22%20width%3D%22240%22%20height%3D%2240%22%20as%3D%22geometry%22%2F%3E%3C%2FmxCell%3E%3C%2Froot%3E%3C%2FmxGraphModel%3E&lt;/span&gt;" style="rounded=0;whiteSpace=wrap;html=1;align=left;" vertex="1" parent="25">
                    <mxGeometry y="50" width="240" height="20" as="geometry"/>
                </mxCell>
                <mxCell id="20" value="Dir2" style="rounded=0;whiteSpace=wrap;html=1;align=left;" vertex="1" parent="25">
                    <mxGeometry y="70" width="240" height="20" as="geometry"/>
                </mxCell>
                <mxCell id="21" value="Dir3" style="rounded=0;whiteSpace=wrap;html=1;align=left;" vertex="1" parent="25">
                    <mxGeometry y="90" width="240" height="20" as="geometry"/>
                </mxCell>
                <mxCell id="22" value="File1" style="rounded=0;whiteSpace=wrap;html=1;align=left;" vertex="1" parent="25">
                    <mxGeometry y="110" width="240" height="20" as="geometry"/>
                </mxCell>
                <mxCell id="23" value="File2" style="rounded=0;whiteSpace=wrap;html=1;align=left;" vertex="1" parent="25">
                    <mxGeometry y="130" width="240" height="20" as="geometry"/>
                </mxCell>
                <mxCell id="24" value="Dile3" style="rounded=0;whiteSpace=wrap;html=1;align=left;" vertex="1" parent="25">
                    <mxGeometry y="150" width="240" height="20" as="geometry"/>
                </mxCell>
                <mxCell id="26" value="" style="rounded=0;whiteSpace=wrap;html=1;" vertex="1" parent="1">
                    <mxGeometry x="1121" y="80" width="240" height="280" as="geometry"/>
                </mxCell>
                <mxCell id="27" value="FileView" style="rounded=0;whiteSpace=wrap;html=1;" vertex="1" parent="1">
                    <mxGeometry x="1121" y="380" width="240" height="40" as="geometry"/>
                </mxCell>
                <mxCell id="28" value="ヘッダー" style="rounded=0;whiteSpace=wrap;html=1;" vertex="1" parent="1">
                    <mxGeometry x="1121" y="80" width="240" height="40" as="geometry"/>
                </mxCell>
                <mxCell id="29" value="フッター" style="rounded=0;whiteSpace=wrap;html=1;" vertex="1" parent="1">
                    <mxGeometry x="1121" y="320" width="240" height="40" as="geometry"/>
                </mxCell>
                <mxCell id="30" value="" style="rounded=0;whiteSpace=wrap;html=1;" vertex="1" parent="1">
                    <mxGeometry x="840" y="80" width="240" height="280" as="geometry"/>
                </mxCell>
                <mxCell id="31" value="ヘッダー" style="rounded=0;whiteSpace=wrap;html=1;" vertex="1" parent="1">
                    <mxGeometry x="840" y="80" width="240" height="40" as="geometry"/>
                </mxCell>
                <mxCell id="32" value="フッター" style="rounded=0;whiteSpace=wrap;html=1;" vertex="1" parent="1">
                    <mxGeometry x="840" y="320" width="240" height="40" as="geometry"/>
                </mxCell>
                <mxCell id="33" value="NewDir" style="rounded=0;whiteSpace=wrap;html=1;" vertex="1" parent="1">
                    <mxGeometry x="840" y="380" width="240" height="40" as="geometry"/>
                </mxCell>
                <mxCell id="34" value="「フォルダ名」" style="rounded=0;whiteSpace=wrap;html=1;" vertex="1" parent="1">
                    <mxGeometry x="840" y="130" width="240" height="20" as="geometry"/>
                </mxCell>
                <mxCell id="36" value="フォルダ名入力欄" style="rounded=0;whiteSpace=wrap;html=1;" vertex="1" parent="1">
                    <mxGeometry x="840" y="160" width="240" height="40" as="geometry"/>
                </mxCell>
                <mxCell id="37" value="" style="rounded=0;whiteSpace=wrap;html=1;" vertex="1" parent="1">
                    <mxGeometry x="840" y="480" width="240" height="280" as="geometry"/>
                </mxCell>
                <mxCell id="38" value="SettingView" style="rounded=0;whiteSpace=wrap;html=1;" vertex="1" parent="1">
                    <mxGeometry x="840" y="780" width="240" height="40" as="geometry"/>
                </mxCell>
                <mxCell id="39" value="ヘッダー" style="rounded=0;whiteSpace=wrap;html=1;" vertex="1" parent="1">
                    <mxGeometry x="840" y="480" width="240" height="40" as="geometry"/>
                </mxCell>
                <mxCell id="40" value="フッター" style="rounded=0;whiteSpace=wrap;html=1;" vertex="1" parent="1">
                    <mxGeometry x="840" y="720" width="240" height="40" as="geometry"/>
                </mxCell>
            </root>
        </mxGraphModel>
    </diagram>
</mxfile>